<svg id="Layer_1" data-name="Layer 1" xmlns="http://www.w3.org/2000/svg" viewBox="0 0 1080 1080"><defs><style>.cls-1{fill:#ff595e;}.cls-2{fill:#fff;stroke:#fff;stroke-miterlimit:10;stroke-width:25px;}</style></defs><title>Mythpilot-1080x1080</title><circle class="cls-1" cx="540" cy="540" r="540"/><path class="cls-1" d="M391,548.89C520.81,638.9,510.39,715,610,746.21c164.08,51.5,331.68-111.11,469.31-232.93C1065,227.38,829,0,540,0,281.15,0,64.85,182.42,12.23,425.91,148.61,433,288.21,477.61,391,548.89Z"/><path class="cls-2" d="M644.79,446.87c3.66,5.68,7.24,10.65,10.18,16,3.49,6.32,6.7,12.83,9.55,19.48,2.71,6.33,5,12.88,7.08,19.44a50.14,50.14,0,0,1,2.27,11c.85,9.81,1.79,19.65,1.85,29.49A144.13,144.13,0,0,1,673.81,566c-1.6,9.87-3.73,19.68-7.72,29-8.53,20-20,37.67-37.16,51.46a143.51,143.51,0,0,1-33.44,20.22c-7.91,3.4-15.9,6.46-24.39,8.06-6.77,1.27-13.5,2.75-20.28,3.92-20.72,3.58-41.58,2.46-62.35,1.1-10-.66-19.92-3.17-29.87-4.92a93.7,93.7,0,0,1-10.23-2.24c-10.81-3.19-21.62-6.43-32.36-9.88-6-1.92-11.9-4.08-17.71-6.47-6.94-2.86-13.77-6-20.58-9.17-6-2.81-12-5.69-17.83-8.82-6.68-3.58-13.26-7.36-19.76-11.26-6.91-4.14-13.87-8.23-20.45-12.85-11.52-8.11-23.09-16.2-34-25-15.53-12.58-30.47-25.88-45.73-38.79-1.85-1.57-2.49-2.41-.44-4.58,6.65-7,13-14.33,19.85-22C309.12,572.87,366,609.63,432,632.12c-2-2.63-3.9-5.33-6-7.86a110.78,110.78,0,0,1-16.17-26.7,149.38,149.38,0,0,1-8-25.36c-4-16.79-4.13-33.75-2.86-50.75a127.28,127.28,0,0,1,4-23.41c4.31-16.09,10.73-31.27,21.2-44.54a135.76,135.76,0,0,1,29.24-27.69,116.06,116.06,0,0,1,31.32-15.9c7.05-2.23,14.23-4,21.36-6a132.56,132.56,0,0,1,31.4-4.15c12.39-.32,24.79-1,37.19-.86a193.09,193.09,0,0,1,23.13,1.94c7.52,1,15,2.34,22.41,3.92,8.32,1.77,16.66,3.64,24.81,6,10.19,3,20.32,6.31,30.25,10.06,9.39,3.55,18.65,7.54,27.69,11.9,9.63,4.66,19,9.81,28.36,15.08s18.85,10.74,27.85,16.75c10.84,7.23,21.48,14.81,31.74,22.83,11.85,9.26,23.28,19.07,34.72,28.85,5.23,4.46,10,9.46,15.09,14.08,1.26,1.14,1.53,1.74.28,3.06-5.27,5.56-10.3,11.35-15.67,16.82-4.62,4.69-4.82,4.6-9.79.25-7.88-6.89-15.49-14.11-23.58-20.75-9.92-8.14-20-16.15-30.4-23.6s-21.18-14.38-32.09-21.05c-7.8-4.77-16-8.82-24.17-13-7.63-3.92-15.28-7.82-23.11-11.31-8.67-3.86-17.56-7.25-26.36-10.83-2.57-1.05-5.13-2.13-7.75-3.06C647.28,446.64,646.35,446.87,644.79,446.87Zm.3,93.9c-.93-7.48-1.72-14.82-2.8-22.12-.56-3.77-1.1-7.7-2.57-11.16a240.71,240.71,0,0,0-11.42-24.07c-5.41-9.62-12.82-17.77-21.26-24.92a113,113,0,0,0-30.83-18.8,94,94,0,0,0-28.51-6.9c-13.9-1-27.83-.57-41.31,3.58-6,1.84-12.13,3.68-17.6,6.64a167.11,167.11,0,0,0-20.25,13.27c-9,6.68-16.2,15.12-22.32,24.46a110.66,110.66,0,0,0-10.63,20.54c-3.32,8.52-6.21,17.29-6.53,26.22-.43,12.33.95,24.74,1.79,37.1a27.1,27.1,0,0,0,2.16,8.55c3,7,5.78,14.16,9.59,20.71a129,129,0,0,0,13.11,18.18c7.26,8.64,16.13,15.42,25.86,21.24a103.73,103.73,0,0,0,31.57,12.47c7.49,1.62,15.38,1.48,23.11,1.91,2.16.12,4.37-.82,6.55-.75a81.77,81.77,0,0,0,33-6.11c7.58-3,14.93-6.37,21.47-11.1A116.62,116.62,0,0,0,627,599.19,107.87,107.87,0,0,0,641.8,565C643.71,557.11,644.05,548.85,645.09,540.77Z"/></svg>