<svg id="Layer_1" data-name="Layer 1" xmlns="http://www.w3.org/2000/svg" viewBox="0 0 240 60"><defs><style>.cls-1{font-size:35px;fill:#1a1a1a;font-family:GalanoGrotesqueDEMO-Bold, Galano Grotesque DEMO;font-weight:700;}.cls-2{fill:#ff595e;}.cls-3{fill:#fff;stroke:#fff;stroke-miterlimit:10;stroke-width:1.39px;}</style></defs><title>Mythpilot-240x60</title><text class="cls-1" transform="translate(72.25 41.29)">Mythpilot</text><circle class="cls-2" cx="30" cy="30" r="30"/><path class="cls-2" d="M21.72,30.49c7.21,5,6.64,9.23,12.17,11C43,44.32,52.32,35.28,60,28.52A30,30,0,0,0,.68,23.66,41.88,41.88,0,0,1,21.72,30.49Z"/><path class="cls-3" d="M35.82,24.83c.2.31.4.59.57.88s.37.72.53,1.09.27.71.39,1.08a3.06,3.06,0,0,1,.13.6c0,.55.1,1.1.1,1.64a8.52,8.52,0,0,1-.11,1.33A6.59,6.59,0,0,1,37,33.06a7.27,7.27,0,0,1-2.07,2.86A8.36,8.36,0,0,1,33.08,37a6.49,6.49,0,0,1-1.35.45c-.38.07-.75.15-1.13.21a14.84,14.84,0,0,1-3.46.07,15.54,15.54,0,0,1-1.66-.28,5.78,5.78,0,0,1-.57-.12l-1.8-.55c-.33-.11-.66-.23-1-.36S21.36,36.13,21,36l-1-.49c-.37-.2-.73-.41-1.09-.63s-.77-.45-1.14-.71c-.64-.45-1.28-.9-1.89-1.39-.86-.7-1.69-1.44-2.54-2.16-.1-.08-.14-.13,0-.25l1.1-1.22a24.92,24.92,0,0,0,9.59,6l-.33-.44a5.92,5.92,0,0,1-.9-1.48,8.89,8.89,0,0,1-.45-1.41A9.22,9.22,0,0,1,22.16,29a8,8,0,0,1,.22-1.3,6.84,6.84,0,0,1,1.18-2.48,7.64,7.64,0,0,1,1.63-1.53,6.36,6.36,0,0,1,1.74-.89c.39-.12.79-.22,1.18-.33a7.92,7.92,0,0,1,1.75-.23c.69,0,1.38-.05,2.06-.05.43,0,.86.06,1.29.11s.83.13,1.24.22.93.2,1.38.33,1.13.35,1.68.56,1,.42,1.54.66,1.06.55,1.58.84,1,.6,1.54.93,1.2.83,1.77,1.27,1.29,1.06,1.93,1.6c.29.25.55.53.84.79.06.06.08.09,0,.17-.29.31-.57.63-.87.93s-.27.26-.54,0c-.44-.38-.86-.78-1.31-1.15s-1.11-.9-1.69-1.31-1.18-.8-1.79-1.17c-.43-.26-.89-.49-1.34-.72s-.85-.44-1.28-.63-1-.4-1.47-.6L36,24.83S35.91,24.83,35.82,24.83Zm0,5.21c-.05-.41-.1-.82-.16-1.23a2.65,2.65,0,0,0-.14-.62,13.44,13.44,0,0,0-.63-1.33,5.11,5.11,0,0,0-1.19-1.39,6,6,0,0,0-1.71-1A5.16,5.16,0,0,0,30.43,24a6.38,6.38,0,0,0-2.3.2,6.27,6.27,0,0,0-1,.37,8.45,8.45,0,0,0-1.13.74,5.19,5.19,0,0,0-1.24,1.36,5.86,5.86,0,0,0-.59,1.14,4.41,4.41,0,0,0-.36,1.46,17.87,17.87,0,0,0,.1,2.06,1.31,1.31,0,0,0,.12.47A9.23,9.23,0,0,0,24.59,33a6.66,6.66,0,0,0,.73,1,5.43,5.43,0,0,0,1.43,1.18,6,6,0,0,0,1.76.7,7.71,7.71,0,0,0,1.28.1c.12,0,.24,0,.37,0A4.44,4.44,0,0,0,32,35.6,5.18,5.18,0,0,0,33.18,35a6.32,6.32,0,0,0,1.65-1.69,6.18,6.18,0,0,0,.83-1.9C35.76,31,35.78,30.49,35.84,30Z"/></svg>